<svg width="287" height="54" viewBox="0 0 287 54" fill="none" xmlns="http://www.w3.org/2000/svg">
<path fill-rule="evenodd" clip-rule="evenodd" d="M28.3973 2.35156C33.364 2.35156 37.9776 3.91193 41.7994 6.58281C40.9851 7.13718 40.3542 7.93425 39.9908 8.86772C36.8526 6.95765 33.2737 5.95289 29.6292 5.95876C18.356 5.95876 9.21622 15.3792 9.21622 26.9986C9.21622 38.6203 18.356 48.0407 29.6292 48.0407C32.4386 48.0438 35.2182 47.4475 37.7931 46.2892C38.081 47.3044 38.6778 48.1973 39.4956 48.8362C36.0726 50.6882 32.2636 51.6532 28.3978 51.6479C15.1906 51.6479 4.48462 40.6127 4.48462 26.999C4.48462 13.3863 15.1906 2.35156 28.3978 2.35156H28.3973ZM48.3866 13.4671C49.9468 15.9081 51.0712 18.6169 51.7068 21.4657C50.9282 21.3656 50.1377 21.465 49.4052 21.7549C48.8166 19.3929 47.8321 17.1551 46.4959 15.1425C47.2582 14.7652 47.9104 14.1873 48.3866 13.4671ZM51.9628 31.2082C51.2462 35.4943 49.4375 39.5072 46.7219 42.8361C46.3502 42.0133 45.7663 41.3116 45.034 40.8075C47.3819 38.0314 48.9789 34.6668 49.6645 31.0523C50.4069 31.2953 51.1955 31.3488 51.9624 31.2082" fill="black"/>
<path fill-rule="evenodd" clip-rule="evenodd" d="M28.143 9.44776C22.3481 9.5351 17.2543 12.6047 14.2425 17.2346C14.8621 17.2996 15.4528 17.5376 15.9509 17.9229C18.6069 14.3317 22.8005 12.013 27.5207 12.013L27.8177 12.0172C27.6085 11.1491 27.7247 10.2315 28.143 9.44776ZM11.6995 23.5324C11.4782 24.6736 11.3667 25.8345 11.3665 26.9982C11.3665 32.2367 13.5924 36.9375 17.1213 40.1531C17.2959 39.4959 17.6497 38.9042 18.1409 38.4481C14.9851 35.6993 12.981 31.5901 12.981 26.9982C12.981 26.0666 13.0648 25.1552 13.2225 24.2701C12.6634 24.1577 12.1402 23.9043 11.6995 23.5324ZM22.8907 43.6152C24.6641 44.2381 26.525 44.5551 28.3986 44.5534C37.8044 44.5534 45.4298 36.6943 45.4298 26.9982C45.4298 19.5542 40.9337 13.1935 34.588 10.6405C34.6122 10.8104 34.6245 10.9846 34.6245 11.1617C34.6258 12.0109 34.3313 12.8324 33.7944 13.4766C38.6827 15.8911 42.0585 21.0385 42.0585 26.9982C42.0585 35.2748 35.5493 41.9839 27.5207 41.9839C26.2651 41.9839 25.0469 41.8205 23.8847 41.512C23.7933 42.3087 23.4429 43.0499 22.8907 43.6152ZM42.3834 41.6632C43.2183 41.6632 44.019 42.0051 44.6094 42.6136C45.1997 43.2221 45.5314 44.0474 45.5314 44.9079C45.5315 45.334 45.4501 45.756 45.2919 46.1497C45.1337 46.5434 44.9018 46.9011 44.6095 47.2024C44.3172 47.5037 43.9701 47.7427 43.5881 47.9058C43.2062 48.0688 42.7968 48.1527 42.3834 48.1526C41.5485 48.1526 40.7478 47.8108 40.1574 47.2023C39.567 46.5938 39.2353 45.7685 39.2353 44.9079C39.2353 44.0474 39.567 43.2221 40.1574 42.6136C40.7478 42.0051 41.5485 41.6632 42.3834 41.6632ZM44.4321 7.45117C45.267 7.45123 46.0677 7.79314 46.658 8.40169C47.2483 9.01023 47.58 9.83556 47.5799 10.6961C47.5798 11.5566 47.2481 12.3819 46.6577 12.9904C46.0673 13.5988 45.2665 13.9406 44.4316 13.9406C44.0182 13.9405 43.6089 13.8566 43.227 13.6935C42.845 13.5304 42.498 13.2914 42.2057 12.99C41.9134 12.6887 41.6816 12.331 41.5234 11.9373C41.3652 11.5437 41.2838 11.1217 41.2838 10.6956C41.2839 10.2695 41.3653 9.84761 41.5236 9.45396C41.6818 9.06031 41.9137 8.70263 42.206 8.40136C42.4984 8.10008 42.8454 7.8611 43.2274 7.69807C43.6093 7.53504 44.0187 7.45114 44.4321 7.45117ZM13.8844 18.5578C14.4474 18.5697 14.9834 18.8086 15.3775 19.2233C15.7716 19.6379 15.9923 20.1951 15.9923 20.7756C15.9923 21.356 15.7716 21.9132 15.3775 22.3279C14.9834 22.7425 14.4474 22.9814 13.8844 22.9933C13.3138 22.9933 12.7665 22.7597 12.3629 22.3437C11.9594 21.9278 11.7327 21.3637 11.7327 20.7756C11.7327 20.1874 11.9594 19.6233 12.3629 19.2074C12.7665 18.7915 13.3138 18.5578 13.8844 18.5578Z" fill="#3F92CF"/>
<path fill-rule="evenodd" clip-rule="evenodd" d="M20.4544 38.8749C20.737 38.8749 21.0168 38.9322 21.2779 39.0437C21.5389 39.1551 21.7762 39.3184 21.976 39.5243C22.1758 39.7302 22.3343 39.9747 22.4425 40.2438C22.5506 40.5128 22.6063 40.8012 22.6064 41.0925C22.6064 41.3837 22.5508 41.6721 22.4427 41.9412C22.3346 42.2103 22.1761 42.4548 21.9763 42.6607C21.7765 42.8667 21.5393 43.0301 21.2783 43.1415C21.0173 43.253 20.7375 43.3104 20.4549 43.3104C19.8842 43.3104 19.337 43.0768 18.9334 42.6609C18.5299 42.245 18.3032 41.6809 18.3032 41.0927C18.3032 40.5045 18.5299 39.9404 18.9334 39.5245C19.337 39.1086 19.8842 38.8749 20.4549 38.8749H20.4544ZM31.1709 8.94578C31.4572 8.93971 31.7417 8.99257 32.0079 9.10128C32.274 9.20998 32.5164 9.37233 32.7209 9.57883C32.9255 9.78532 33.0879 10.0318 33.1988 10.3038C33.3098 10.5759 33.3669 10.868 33.3669 11.1631C33.3669 11.4581 33.3098 11.7503 33.1988 12.0223C33.0879 12.2943 32.9255 12.5408 32.7209 12.7473C32.5164 12.9538 32.274 13.1162 32.0079 13.2249C31.7417 13.3336 31.4572 13.3864 31.1709 13.3804C30.6058 13.3719 30.0665 13.1345 29.6698 12.7196C29.273 12.3046 29.0506 11.7454 29.0506 11.1628C29.0506 10.5802 29.273 10.021 29.6698 9.60609C30.0665 9.19115 30.6058 8.95379 31.1709 8.94531V8.94578ZM28.3983 16.7565C33.7796 16.7565 38.1412 21.2526 38.1412 26.7982C38.1412 32.3442 33.7796 36.8408 28.3983 36.8408C23.0175 36.8408 18.6558 32.3442 18.6558 26.7982C18.6558 21.2526 23.0175 16.7565 28.3983 16.7565ZM32.0169 22.9632L28.8161 29.0502L28.2662 30.079L27.7687 29.0512L24.6425 23.1074L24.5997 23.1548C23.7208 24.1368 23.2333 25.4241 23.2344 26.7601C23.2344 28.4961 24.0439 30.1067 25.4084 31.1008L26.1942 31.5901L25.2576 33.7041L24.787 33.4515C23.6298 32.7881 22.6658 31.8179 21.9948 30.6414C21.3238 29.4649 20.9702 28.1249 20.9706 26.7601C20.9706 23.8465 22.525 21.3005 25.0116 19.9453L25.5605 19.6472L26.289 21.1949L28.2922 25.2773L30.3286 21.1315L31.0552 19.5828L31.5928 19.8477C32.8601 20.4696 33.9305 21.449 34.6798 22.6724C35.4291 23.8957 35.8267 25.3129 35.8265 26.7597C35.8267 28.1255 35.4726 29.4665 34.8006 30.6438C34.1287 31.821 33.1635 32.7915 32.0051 33.4547L31.5267 33.7158L30.5801 31.6028L31.3782 31.1079C32.0546 30.6174 32.6063 29.9662 32.9866 29.2092C33.3669 28.4523 33.5645 27.6121 33.5627 26.7597C33.5627 25.351 33.0242 24.0057 32.0593 23.0069L32.0169 22.9632ZM51.1188 23.113C51.5322 23.113 51.9415 23.197 52.3234 23.36C52.7054 23.5231 53.0524 23.7621 53.3447 24.0634C53.6371 24.3647 53.8689 24.7224 54.0271 25.116C54.1853 25.5097 54.2668 25.9316 54.2668 26.3577C54.2668 26.7838 54.1853 27.2058 54.0271 27.5994C53.8689 27.9931 53.6371 28.3508 53.3447 28.6521C53.0524 28.9534 52.7054 29.1924 52.3234 29.3554C51.9415 29.5185 51.5322 29.6024 51.1188 29.6024C50.2838 29.6024 49.4831 29.2606 48.8928 28.6521C48.3024 28.0436 47.9707 27.2183 47.9707 26.3577C47.9707 25.4972 48.3024 24.6719 48.8928 24.0634C49.4831 23.4549 50.2838 23.113 51.1188 23.113Z" fill="black"/>
<path fill-rule="evenodd" clip-rule="evenodd" d="M108.108 38.6481H105.343V15.383H111.599C112.464 15.3792 113.328 15.4366 114.186 15.5548C114.981 15.6736 115.708 15.8516 116.369 16.0953C117.718 16.594 118.743 17.3425 119.441 18.3337C120.138 19.3255 120.484 20.5501 120.484 21.9978C120.484 23.1806 120.259 24.224 119.804 25.1213C119.348 26.0233 118.686 26.7718 117.821 27.3776C116.957 27.9833 115.909 28.4346 114.665 28.7431C113.426 29.053 112.476 29.2065 110.902 29.2065C110.689 29.2065 110.473 29.2032 110.254 29.1971L111.072 26.63C112.255 26.6742 112.564 26.5887 113.72 26.3257C114.63 26.1201 115.372 25.8158 115.944 25.4185C116.52 25.0147 116.934 24.5273 117.193 23.9563C117.453 23.382 117.579 22.7279 117.579 21.9982C117.579 21.0943 117.366 20.3519 116.947 19.7706C116.525 19.1944 115.926 18.7559 115.154 18.4516C114.671 18.268 114.112 18.1379 113.483 18.06C112.855 17.983 112.124 17.9482 111.294 17.9482H108.108V38.6481ZM61.4016 38.6481L70.5801 15.383H72.9646L82.1777 38.6481H79.1868L76.5372 31.6647L75.5404 29.1009L74.6702 26.8794C73.7431 24.4672 72.7974 21.8372 71.8238 18.9813H71.7555C70.831 21.6316 69.8646 24.2662 68.8566 26.884L67.9879 29.1004C66.8193 32.3132 65.6198 35.3372 64.3569 38.6481H61.4016ZM88.3931 38.6481H85.6277V15.383H91.8837C92.8181 15.383 93.6764 15.4417 94.4714 15.5548C95.2659 15.6736 95.9921 15.8516 96.6549 16.0953C98.003 16.594 99.0276 17.3425 99.7255 18.3337C100.423 19.3255 100.769 20.5501 100.769 21.9978C100.769 23.1806 100.543 24.224 100.089 25.1213C99.6335 26.0233 98.9701 26.7718 98.1064 27.3776C97.2426 27.9833 96.1939 28.4346 94.9488 28.7431C93.711 29.053 92.7616 29.2065 91.188 29.2065C90.9807 29.2065 90.7689 29.2032 90.557 29.1981L91.4532 26.6305C92.6263 26.6709 92.8613 26.5868 94.0058 26.3253C94.9137 26.1201 95.6577 25.8158 96.2285 25.419C96.8039 25.0152 97.2194 24.5273 97.4781 23.9563C97.7378 23.382 97.8649 22.7279 97.8649 21.9982C97.8649 21.0943 97.6513 20.3519 97.2303 19.7706C96.8103 19.1944 96.2112 18.7559 95.4385 18.4516C94.9556 18.268 94.3971 18.1379 93.7684 18.06C93.1397 17.983 92.409 17.9482 91.5794 17.9482H88.3931V38.6481Z" fill="black"/>
<path d="M148.877 15.3496L143.592 31.1805C143.361 31.8751 143.133 32.5707 142.909 33.2673C142.744 32.7447 142.552 32.1403 142.333 31.4562L137.108 15.3496H131.969V38.6166H135.697V22.1949L141.11 38.6166H144.383L149.828 22.4527V38.6166H153.556V15.3496H148.877H148.877ZM169.758 15.3496H166.017L157.347 38.617H161.432L167.894 20.0922L174.682 38.617H178.996L169.758 15.3496ZM197.091 28.3378C196.465 27.3789 195.492 26.5816 194.199 25.9679C193.322 25.5566 191.778 25.0954 189.478 24.5611C186.787 23.9333 185.84 23.4402 185.516 23.1355C185.073 22.7269 184.857 22.2217 184.857 21.5859C184.857 20.8426 185.176 20.2185 185.831 19.6785C186.507 19.1188 187.639 18.8347 189.195 18.8347C190.683 18.8347 191.809 19.1493 192.543 19.7692C193.274 20.388 193.691 21.292 193.822 22.5358L193.872 23.0026L197.431 22.7255L197.414 22.2569C197.362 20.9088 196.992 19.6818 196.311 18.6126C195.625 17.5354 194.633 16.7109 193.366 16.1596C192.129 15.6224 190.687 15.3496 189.081 15.3496C187.615 15.3496 186.265 15.6097 185.064 16.1211C183.827 16.6465 182.872 17.4335 182.225 18.4595C181.578 19.4808 181.248 20.5979 181.248 21.7775C181.248 22.8561 181.521 23.8459 182.056 24.7203C182.589 25.5908 183.4 26.3248 184.466 26.8972C185.28 27.3423 186.638 27.7973 188.614 28.2871C190.514 28.7566 191.749 29.1041 192.282 29.3187C193.07 29.6272 193.635 30.0024 193.961 30.4349C194.278 30.8561 194.433 31.3392 194.433 31.9102C194.433 32.4784 194.269 32.9898 193.928 33.4725C193.592 33.9561 193.056 34.3468 192.336 34.6328C191.587 34.9342 190.704 35.0864 189.711 35.0864C188.59 35.0864 187.573 34.8854 186.686 34.4867C185.825 34.0998 185.185 33.5955 184.786 32.9855C184.377 32.3596 184.113 31.5383 183.998 30.5447L183.945 30.0771L180.439 30.3935L180.449 30.85C180.488 32.3746 180.9 33.7646 181.675 34.9798C182.452 36.1974 183.535 37.121 184.894 37.7239C186.226 38.3175 187.889 38.617 189.837 38.617C191.392 38.617 192.814 38.3175 194.067 37.7272C195.334 37.1285 196.325 36.273 197.012 35.1808C197.696 34.089 198.044 32.9099 198.044 31.6745C198.044 30.4255 197.724 29.3032 197.09 28.3383L197.091 28.3378ZM199.608 15.3496V18.9798H206.725V38.617H210.558V18.9798H217.703V15.3496H199.608ZM225.687 34.9868V28.4115H237.638V24.7949H225.687V18.9793H238.448V15.3496H221.857V38.6166H238.948V34.9868H225.686H225.687ZM256.925 23.6501C256.596 24.1741 256.125 24.547 255.485 24.7893C254.806 25.0457 253.831 25.1743 252.587 25.1743H246.931V18.8112H253.282C254.75 18.8112 255.825 19.1118 256.472 19.702C257.111 20.288 257.421 21.0168 257.421 21.9273C257.425 22.5397 257.253 23.1397 256.925 23.6506L256.925 23.6501ZM259.272 31.7835C258.507 30.5673 257.682 29.5389 256.82 28.7233C256.618 28.5384 256.403 28.3694 256.176 28.2176C257.7 27.8283 258.887 27.1742 259.719 26.2642C260.796 25.0884 261.342 23.6285 261.342 21.9268C261.342 20.613 261.015 19.3944 260.371 18.3083C259.719 17.2058 258.83 16.4244 257.728 15.9821C256.661 15.5572 255.167 15.3496 253.164 15.3496H243.099V38.6166H246.93V28.7275H249.759C250.623 28.7275 251.047 28.7811 251.235 28.8224C251.621 28.9205 252.01 29.0966 252.39 29.3469C252.77 29.5995 253.218 30.062 253.723 30.7236C254.246 31.4106 254.932 32.431 255.758 33.75L258.76 38.6166H263.509L259.272 31.783V31.7835ZM281.561 28.3378C280.935 27.3789 279.962 26.5816 278.669 25.9679C277.792 25.5566 276.248 25.0954 273.949 24.5611C271.258 23.9333 270.31 23.4402 269.987 23.1355C269.543 22.7269 269.328 22.2217 269.328 21.5859C269.328 20.8426 269.646 20.2185 270.301 19.6785C270.978 19.1188 272.109 18.8347 273.666 18.8347C275.153 18.8347 276.279 19.1493 277.014 19.7692C277.744 20.388 278.161 21.292 278.292 22.5358L278.342 23.0026L281.902 22.7255L281.885 22.2569C281.834 20.9088 281.462 19.6818 280.782 18.6126C280.095 17.5354 279.104 16.7109 277.836 16.1596C276.6 15.6224 275.157 15.3496 273.551 15.3496C272.085 15.3496 270.735 15.6097 269.534 16.1211C268.297 16.6465 267.343 17.4335 266.696 18.4595C266.048 19.4808 265.719 20.5979 265.719 21.7775C265.719 22.8561 265.991 23.8459 266.526 24.7203C267.06 25.5908 267.87 26.3248 268.936 26.8972C269.751 27.3423 271.109 27.7973 273.085 28.2871C274.984 28.7566 276.219 29.1041 276.752 29.3187C277.54 29.6272 278.106 30.0024 278.432 30.4349C278.748 30.8561 278.903 31.3392 278.903 31.9102C278.903 32.4784 278.74 32.9898 278.399 33.4725C278.063 33.9561 277.527 34.3468 276.806 34.6328C276.057 34.9342 275.174 35.0864 274.181 35.0864C273.06 35.0864 272.043 34.8854 271.157 34.4867C270.295 34.0998 269.655 33.5955 269.256 32.9855C268.848 32.3596 268.583 31.5383 268.469 30.5447L268.415 30.0771L264.909 30.3935L264.921 30.85C264.959 32.3746 265.371 33.7646 266.145 34.9798C266.921 36.1974 268.005 37.121 269.364 37.7239C270.696 38.3175 272.359 38.617 274.307 38.617C275.862 38.617 277.284 38.3175 278.537 37.7272C279.805 37.1285 280.797 36.273 281.482 35.1808C282.166 34.089 282.514 32.9099 282.514 31.6745C282.514 30.4255 282.194 29.3032 281.561 28.3383" fill="black"/>
</svg>
